<?xml version="1.0" standalone="no"?>
<!DOCTYPE svg PUBLIC "-//W3C//DTD SVG 20010904//EN"
 "http://www.w3.org/TR/2001/REC-SVG-20010904/DTD/svg10.dtd">
<svg version="1.0" xmlns="http://www.w3.org/2000/svg"
 width="1815.000000pt" height="903.000000pt" viewBox="0 0 1815.000000 903.000000"
 preserveAspectRatio="xMidYMid meet">

<g transform="translate(0.000000,903.000000) scale(0.100000,-0.100000)"
fill="#000000" stroke="none">
<path d="M10435 8401 c-250 -6 -250 -6 -309 -35 -75 -37 -131 -93 -165 -165
-25 -53 -26 -66 -31 -256 l-5 -200 -205 -5 c-131 -3 -215 -10 -233 -17 -52
-24 -104 -74 -132 -128 l-27 -54 1 -348 c0 -191 5 -683 9 -1093 5 -410 9 -758
9 -775 0 -16 5 -397 11 -845 7 -448 13 -988 15 -1200 3 -379 3 -386 26 -438
27 -60 75 -106 140 -135 44 -19 62 -20 596 -15 523 5 553 6 596 25 65 29 113
75 140 135 25 59 24 -12 14 808 -2 217 -7 796 -10 1285 -5 731 -12 1508 -25
2470 -2 151 -12 185 -75 252 -79 85 -118 95 -345 91 l-185 -3 -6 75 c-13 150
-10 237 7 254 13 14 60 16 357 16 188 0 372 3 408 6 83 7 104 -3 118 -58 5
-24 14 -59 19 -78 37 -132 64 -229 72 -255 33 -115 84 -299 95 -345 13 -48 37
-137 65 -235 5 -16 16 -55 24 -85 14 -53 41 -150 70 -255 32 -110 58 -204 80
-290 14 -49 34 -121 45 -160 22 -72 26 -87 62 -215 11 -41 25 -91 31 -110 5
-19 13 -51 18 -70 4 -19 20 -75 35 -125 14 -49 34 -121 44 -160 38 -144 74
-261 87 -280 8 -11 14 -31 14 -44 0 -14 10 -53 22 -88 27 -82 89 -152 166
-190 l57 -28 535 0 535 0 3 -179 c2 -150 5 -183 19 -198 14 -16 35 -18 183
-18 193 0 192 -1 200 89 l5 56 475 7 c261 4 910 11 1441 16 892 9 969 11 1003
27 66 32 70 46 76 265 l5 195 43 3 c55 4 54 22 -2 22 l-44 0 -4 93 c-4 106
-26 156 -79 177 -24 10 -215 11 -942 4 -502 -5 -1153 -9 -1447 -9 l-535 0 -5
54 c-8 79 -14 81 -202 81 -210 0 -198 13 -198 -205 0 -137 -3 -167 -15 -171
-8 -3 -234 -7 -501 -7 l-487 -2 -13 40 c-23 74 -94 326 -124 440 -18 72 -118
430 -145 520 -8 28 -22 77 -31 110 -17 64 -21 78 -53 195 -24 85 -31 109 -66
235 -14 50 -31 108 -37 130 -6 22 -16 60 -23 85 -7 25 -29 104 -49 175 -20 72
-55 195 -77 275 -22 80 -49 177 -59 215 -10 39 -25 95 -34 125 -8 30 -26 96
-40 146 -31 111 -54 181 -71 214 -20 37 -85 95 -125 110 -19 7 -45 23 -58 34
-22 20 -35 21 -265 22 -133 0 -354 -2 -492 -5z m187 -888 c18 -18 18 -95 18
-2313 l1 -2295 -27 -23 c-22 -19 -36 -22 -83 -20 l-56 3 -2 2329 c-2 1855 0
2332 10 2338 21 15 118 1 139 -19z m5830 -2090 c11 -10 18 -30 18 -55 l0 -38
-1432 2 -1433 3 -3 44 c-2 28 1 47 10 52 7 5 645 9 1417 9 1293 0 1406 -1
1423 -17z"/>
<path d="M2851 7576 c-52 -19 -111 -74 -133 -125 -23 -55 -27 -194 -6 -262 14
-50 66 -106 123 -134 38 -19 69 -20 727 -25 l686 -5 44 -30 c63 -45 88 -95 88
-178 0 -55 -5 -75 -25 -106 -24 -39 -71 -80 -110 -97 -11 -4 -139 -10 -285
-14 l-265 -5 -42 -28 c-85 -54 -119 -139 -109 -271 7 -110 35 -163 110 -214
l48 -32 2767 2 2766 3 3 745 c1 410 0 755 -3 768 l-5 22 -3173 -1 c-2465 0
-3179 -3 -3206 -13z"/>
<path d="M2235 5921 c-54 -25 -101 -79 -121 -141 -13 -40 -16 -75 -12 -159 6
-117 16 -148 69 -199 69 -68 65 -67 469 -68 406 0 393 2 461 -71 45 -46 55
-66 64 -121 10 -59 -9 -122 -51 -171 -62 -72 -54 -71 -655 -74 l-536 -2 -54
-36 c-39 -26 -61 -50 -79 -85 -32 -65 -39 -163 -15 -235 22 -65 87 -133 141
-148 27 -8 520 -11 1590 -11 l1551 0 185 208 c156 175 296 333 589 662 27 30
167 188 312 351 144 164 267 298 273 298 6 1 38 -29 70 -66 157 -178 478 -539
484 -543 3 -3 120 -133 259 -290 139 -157 320 -360 403 -452 l149 -168 724 0
725 0 5 23 c3 12 4 357 3 767 l-3 745 -3480 2 c-3361 2 -3481 2 -3520 -16z"/>
<path d="M6253 5466 c-81 -90 -182 -201 -223 -248 -41 -46 -158 -176 -259
-289 -101 -112 -216 -240 -255 -283 -187 -210 -248 -278 -341 -381 -56 -60
-138 -153 -185 -205 -46 -52 -217 -243 -379 -424 -163 -180 -299 -336 -302
-345 -4 -9 -22 -30 -40 -47 -19 -17 -106 -111 -194 -209 -88 -98 -177 -197
-197 -219 -21 -23 -38 -47 -38 -53 0 -10 36 -13 149 -13 l149 0 74 83 c279
311 344 383 353 393 6 6 28 33 50 59 22 27 54 62 71 79 18 17 88 94 156 171
68 77 198 223 288 324 91 101 185 207 210 235 24 28 103 116 175 196 72 80
164 183 205 230 41 47 174 195 295 330 121 135 251 281 289 325 82 96 95 107
112 97 8 -4 37 -35 66 -69 29 -33 123 -139 209 -234 282 -314 672 -751 1228
-1373 123 -138 237 -262 253 -275 16 -13 46 -46 67 -75 21 -28 64 -80 96 -116
32 -36 90 -101 129 -145 107 -120 199 -219 211 -227 5 -4 74 -8 153 -8 163 0
165 2 101 71 -110 120 -394 441 -397 449 -2 4 -33 39 -70 76 -38 38 -122 130
-187 204 -66 74 -183 205 -260 290 -77 86 -192 214 -256 285 -64 72 -223 249
-354 395 -130 146 -287 321 -349 389 -107 121 -178 199 -292 326 -30 33 -116
130 -191 215 -149 169 -159 180 -167 180 -3 0 -72 -74 -153 -164z"/>
<path d="M3800 4290 l-1095 -5 -36 -23 c-44 -27 -87 -81 -100 -125 -14 -44
-14 -194 -1 -242 6 -22 28 -57 49 -78 71 -74 57 -71 468 -77 354 -5 372 -6
410 -27 79 -42 115 -103 115 -193 0 -76 -24 -126 -82 -173 -69 -56 -106 -70
-173 -69 -33 1 -93 -1 -134 -4 -66 -5 -77 -9 -111 -41 -59 -52 -73 -101 -68
-225 6 -117 18 -149 79 -201 57 -50 95 -57 289 -57 l173 0 36 38 c20 21 112
123 204 227 93 105 189 212 213 238 24 26 44 50 44 53 0 3 21 26 48 52 63 64
806 901 811 914 4 12 -19 29 -34 25 -5 -1 -503 -4 -1105 -7z"/>
<path d="M7900 4274 c0 -9 6 -22 14 -28 7 -6 143 -157 302 -336 158 -179 333
-374 387 -435 55 -60 106 -121 115 -135 9 -14 37 -45 62 -70 25 -25 135 -146
244 -269 156 -175 201 -220 208 -208 9 18 12 1456 2 1481 -6 14 -74 16 -670
16 -609 0 -664 -1 -664 -16z"/>
<path d="M6025 3677 c-3 -7 -4 -82 -3 -167 l3 -155 160 -5 c88 -3 165 -4 172
-2 14 4 20 110 13 242 l-5 95 -168 3 c-131 2 -169 0 -172 -11z"/>
<path d="M6466 3674 c-3 -8 -6 -80 -6 -159 0 -190 -11 -180 184 -171 83 4 154
10 159 15 4 4 6 79 5 167 l-3 159 -166 3 c-145 2 -167 0 -173 -14z"/>
<path d="M6025 3237 c-3 -7 -4 -85 -3 -172 l3 -160 170 0 170 0 0 170 0 170
-168 3 c-131 2 -169 0 -172 -11z"/>
<path d="M6472 3238 c-13 -13 -18 -271 -6 -316 6 -22 7 -22 173 -20 l166 3 0
170 0 170 -160 3 c-116 2 -164 -1 -173 -10z"/>
<path d="M3100 2181 l-85 -6 1 -65 c3 -94 3 -904 1 -1040 l-2 -115 165 0 165
0 -1 278 c0 152 3 277 6 277 8 0 12 -9 125 -270 111 -259 129 -296 150 -304
27 -10 72 -7 83 7 6 6 51 116 102 242 111 279 140 345 152 345 4 0 6 -42 3
-92 -11 -203 -15 -464 -7 -476 7 -9 49 -12 178 -10 l169 3 0 618 1 617 -161
-2 -160 -3 -40 -80 c-22 -44 -89 -184 -149 -312 -59 -128 -114 -240 -122 -250
-13 -17 -15 -17 -28 0 -8 11 -74 150 -146 310 -73 161 -138 302 -146 315 -13
20 -21 22 -92 20 -42 -1 -115 -4 -162 -7z"/>
<path d="M7935 2178 c-181 -15 -178 -14 -171 -51 13 -71 25 -443 26 -795 l0
-372 26 -10 c28 -11 242 -14 268 -4 14 5 16 38 16 263 0 254 0 258 23 278 32
29 82 53 112 53 33 0 81 -24 89 -45 3 -9 6 -133 6 -276 0 -238 1 -260 18 -267
24 -10 278 -9 289 1 4 5 8 162 8 350 0 300 -2 346 -17 372 -43 79 -123 125
-228 132 -77 6 -144 -16 -239 -77 -33 -21 -62 -36 -64 -32 -2 4 0 113 3 242 4
129 5 238 3 243 -5 8 -10 8 -168 -5z"/>
<path d="M6087 2173 c-3 -5 -8 -108 -12 -230 l-7 -222 53 -123 c79 -186 298
-641 312 -650 21 -13 241 -10 260 5 15 10 114 241 148 345 6 19 15 30 19 25 4
-4 32 -73 63 -153 82 -213 84 -217 109 -224 30 -8 222 -8 243 0 20 8 40 47
225 448 l150 326 0 133 c0 72 -3 176 -7 230 l-6 97 -62 0 c-34 0 -110 -3 -169
-7 l-108 -6 3 -236 4 -236 -63 -145 c-34 -80 -69 -153 -77 -164 -13 -17 -15
-16 -29 18 -8 20 -36 95 -61 167 l-45 131 0 228 0 228 -31 6 c-40 8 -272 8
-293 0 -14 -5 -16 -36 -16 -236 l0 -230 -56 -171 -56 -170 -18 24 c-10 13 -47
87 -82 164 l-63 140 3 241 3 241 -107 6 c-141 9 -222 9 -227 0z"/>
<path d="M8871 2128 c-56 -28 -81 -69 -81 -134 0 -38 6 -59 22 -79 71 -90 258
-84 302 10 69 144 -92 278 -243 203z"/>
<path d="M9315 2069 c-3 -8 -6 -81 -7 -164 l-3 -150 -40 -5 -40 -5 0 -115 0
-115 35 -3 c61 -6 60 -4 53 -221 -7 -225 -2 -251 56 -304 43 -39 107 -57 199
-57 106 0 249 47 270 88 16 29 25 189 12 197 -7 4 -38 2 -70 -5 -76 -16 -125
-7 -148 28 -14 21 -17 49 -17 142 l0 115 108 3 107 3 2 99 c1 55 2 117 3 138
l0 37 -110 0 -110 0 0 129 c0 77 -4 130 -10 132 -5 2 -55 10 -110 18 -55 9
-117 19 -137 22 -27 5 -39 3 -43 -7z"/>
<path d="M10235 1826 c-115 -28 -218 -112 -269 -220 -35 -74 -45 -127 -46
-232 0 -168 60 -293 181 -373 89 -60 152 -76 289 -76 132 1 199 17 273 66 72
47 73 55 27 147 -22 44 -46 84 -53 90 -9 8 -33 1 -87 -26 -65 -33 -82 -37
-149 -37 -61 0 -84 5 -117 23 -35 21 -83 77 -72 87 1 2 91 10 198 19 256 21
296 26 315 40 40 29 35 175 -10 269 -86 182 -279 272 -480 223z m142 -226 c18
-10 39 -30 47 -43 20 -30 31 -83 19 -90 -5 -3 -62 -9 -126 -13 l-117 -7 0 40
c0 25 9 53 23 74 40 60 97 74 154 39z"/>
<path d="M4580 1782 c-74 -13 -137 -26 -139 -28 -2 -2 4 -43 14 -91 14 -69 18
-155 21 -393 3 -174 8 -308 14 -314 11 -11 285 -15 295 -4 4 4 6 108 6 231 -2
282 -9 268 140 276 l104 6 8 150 c4 83 5 156 2 164 -10 27 -121 7 -206 -37
l-77 -40 -8 51 c-6 34 -14 52 -24 53 -8 1 -76 -10 -150 -24z"/>
<path d="M8785 1770 c-2 -3 0 -49 5 -101 5 -52 10 -234 10 -405 0 -275 2 -313
16 -318 22 -9 267 -7 280 2 8 5 14 119 18 382 3 206 7 391 8 410 l3 34 -168 1
c-92 1 -170 -1 -172 -5z"/>
<path d="M5229 1327 c-68 -36 -103 -93 -107 -175 -3 -56 0 -74 20 -112 78
-144 284 -145 357 -1 28 55 34 97 21 150 -31 131 -175 199 -291 138z"/>
</g>
</svg>
